<?xml version="1.0" encoding="UTF-8"?>
<svg id="Layer_1" xmlns="http://www.w3.org/2000/svg" version="1.1" viewBox="0 0 595.28 841.89">
  <!-- Generator: Adobe Illustrator 29.0.0, SVG Export Plug-In . SVG Version: 2.1.0 Build 186)  -->
  <defs>
    <style>
      .st0 {
        fill: #ffcf35;
      }
    </style>
  </defs>
  <path class="st0" d="M546.36,430.85v267.5c0,24.1-26,30.81-45.46,30.54H84.82c-13.52-1.54-25.61-6.8-30.86-20.14-2.37-6.02-1.39-7.85-1.55-13.35-2.38-83.9,2.43-168.21,0-252.1-.12-4.18-2.77-9.21.45-12.45h493.5,0Z"/>
  <path class="st0" d="M418.36,111.85v97.5c0,6.1,6.38,16.22,11.65,19.35.83.5,7.43,3.15,7.85,3.15h107l1.5,1.5v179l-2.5,1.5-492.5,1v-99c.33-49.33.67-98.67,1-148v-34.5c0-8.35,16.07-21.5,24.5-21.5h341.5ZM111.36,259.85c18.09-2.28,40.34,2.88,50.18-17.32,11.06-22.7-5.02-45.68-29.68-45.68h-37l-1.5,1.5v92.5h18v-31ZM178.36,290.85h44.5c5.97,0,20.61-7.68,24.99-12.01,15.91-15.77,15.44-53.71-.44-69.53-5.36-5.34-20.09-12.46-27.54-12.46h-40l-1.5,1.5v92.5h-.01ZM292.36,212.85h46.5l1.06-14.06-1.2-.8-64.36-1.14v94h18v-38l40.34-1.15,1.53-1.42-.88-13.42h-41v-24h0Z"/>
  <path class="st0" d="M541.36,217.85h-97.5c-3.08,0-10.5-8.24-10.5-11.5v-91.5l108,103Z"/>
  <path class="st0" d="M197.36,275.85v-63h22.5c1.05,0,8.63,3.99,10,5,12.64,9.42,14.58,35.94,5.03,48.02-8.99,11.37-24.57,9.49-37.52,9.98h-.01Z"/>
  <path class="st0" d="M111.36,243.85v-31h23.5c.41,0,4.69,2.04,5.45,2.55,7.46,5,8.03,17.62,2.07,23.98-1.04,1.1-7.5,4.48-8.52,4.48h-22.5Z"/>
</svg>